<svg xmlns="http://www.w3.org/2000/svg"  viewBox="0 0 100 100" width="100px" height="100px"><path fill="#f1bc19" d="M77 12A1 1 0 1 0 77 14A1 1 0 1 0 77 12Z"/><path fill="#e6edb7" d="M50 13A37 37 0 1 0 50 87A37 37 0 1 0 50 13Z"/><path fill="#f1bc19" d="M83 11A4 4 0 1 0 83 19A4 4 0 1 0 83 11Z"/><path fill="#88ae45" d="M87 22A2 2 0 1 0 87 26A2 2 0 1 0 87 22Z"/><path fill="#fbcd59" d="M81 74A2 2 0 1 0 81 78 2 2 0 1 0 81 74zM15 59A4 4 0 1 0 15 67 4 4 0 1 0 15 59z"/><path fill="#88ae45" d="M25 85A2 2 0 1 0 25 89A2 2 0 1 0 25 85Z"/><path fill="#fff" d="M18.5 49A2.5 2.5 0 1 0 18.5 54 2.5 2.5 0 1 0 18.5 49zM79.5 32A1.5 1.5 0 1 0 79.5 35 1.5 1.5 0 1 0 79.5 32z"/><path fill="#73b2e5" d="M35,72.3c-4,0-7.3-3.3-7.3-7.3V35c0-4,3.3-7.3,7.3-7.3h30c4,0,7.3,3.3,7.3,7.3v30c0,4-3.3,7.3-7.3,7.3H35z"/><path fill="#472b29" d="M65,28.4c3.6,0,6.6,3,6.6,6.6v30c0,3.6-3,6.6-6.6,6.6H35c-3.6,0-6.6-3-6.6-6.6V35c0-3.6,3-6.6,6.6-6.6H65 M65,27H35c-4.4,0-8,3.6-8,8v30c0,4.4,3.6,8,8,8h30c4.4,0,8-3.6,8-8V35C73,30.6,69.4,27,65,27L65,27z"/><path fill="#fdfcee" d="M68.5,47.9v1.8V64c0,2.5-2,4.5-4.5,4.5H36c-2.5,0-4.5-2-4.5-4.5V36c0-2.5,2-4.5,4.5-4.5h25.4H64 c2.5,0,4.5,2,4.5,4.5v3.4v2v1v1.1v2.9V47.9"/><path fill="#472b29" d="M68.5 47.4c-.3 0-.5-.2-.5-.5V43c0-.3.2-.5.5-.5S69 42.7 69 43v3.9C69 47.2 68.8 47.4 68.5 47.4zM68.5 40.5c-.3 0-.5-.2-.5-.5v-2c0-.3.2-.5.5-.5S69 37.7 69 38v2C69 40.3 68.8 40.5 68.5 40.5z"/><path fill="#472b29" d="M64,69H36c-2.8,0-5-2.2-5-5V36c0-2.8,2.2-5,5-5h25.4c0.3,0,0.5,0.2,0.5,0.5S61.7,32,61.4,32H36 c-2.2,0-4,1.8-4,4v28c0,2.2,1.8,4,4,4h28c2.2,0,4-1.8,4-4V49.6c0-0.3,0.2-0.5,0.5-0.5s0.5,0.2,0.5,0.5V64C69,66.8,66.8,69,64,69z"/><g><path fill="#268bef" d="M61.9,42.8c-0.9,0.4-1.9,0.7-2.9,0.8c1-0.6,1.8-1.6,2.2-2.8c-1,0.6-2,1-3.2,1.2c-0.9-1-2.2-1.6-3.7-1.6 c-2.8,0-5,2.3-5,5.1c0,0.4,0,0.8,0.1,1.2c-4.2-0.2-7.8-2.2-10.3-5.3c-0.4,0.8-0.7,1.6-0.7,2.6c0,1.8,0.9,3.3,2.2,4.3 c-0.8,0-1.6-0.3-2.3-0.6c0,0,0,0,0,0.1c0,2.5,1.7,4.5,4,5c-0.4,0.1-0.9,0.2-1.3,0.2c-0.3,0-0.6,0-0.9-0.1c0.6,2,2.5,3.5,4.7,3.5 c-1.7,1.4-3.9,2.2-6.2,2.2c-0.4,0-0.8,0-1.2-0.1c2.2,1.4,4.8,2.3,7.7,2.3c9.2,0,14.2-7.8,14.2-14.5c0-0.2,0-0.4,0-0.7 C60.4,44.7,61.3,43.8,61.9,42.8z"/><path fill="#472b29" d="M45.2,61.1c-2.8,0-5.6-0.8-7.9-2.4c-0.2-0.1-0.3-0.4-0.2-0.6c0.1-0.2,0.3-0.4,0.5-0.3c2.2,0.3,4.2-0.2,6-1.3 c-1.8-0.5-3.3-1.9-3.8-3.7c-0.1-0.2,0-0.4,0.1-0.5c0.1-0.1,0.3-0.2,0.5-0.2c0,0,0,0,0,0c-1.4-1-2.4-2.7-2.4-4.6 c0-0.2,0.1-0.4,0.2-0.5c0.2-0.1,0.3-0.1,0.5,0c0.1,0.1,0.3,0.1,0.4,0.2c-0.7-1-1.1-2.1-1.1-3.4c0-1,0.3-2,0.7-2.8 c0.1-0.1,0.2-0.2,0.4-0.3c0.2,0,0.3,0.1,0.4,0.2c2.3,2.9,5.7,4.8,9.3,5.1c0-0.2,0-0.4,0-0.6c0-3.1,2.5-5.6,5.5-5.6 c1.4,0,2.8,0.6,3.8,1.6c1-0.2,1.9-0.6,2.8-1.1c0.2-0.1,0.4-0.1,0.6,0c0.2,0.1,0.2,0.3,0.2,0.5c-0.2,0.7-0.5,1.3-0.9,1.8 c0.3-0.1,0.6-0.2,0.9-0.4c0.2-0.1,0.4,0,0.6,0.1c0.1,0.2,0.2,0.4,0,0.6c-0.7,1-1.5,1.9-2.4,2.6c0,0.1,0,0.3,0,0.4 C60,53.5,54.4,61.1,45.2,61.1z M39.6,58.9c1.8,0.8,3.7,1.3,5.7,1.3c8.6,0,13.7-7.1,13.7-14c0-0.2,0-0.4,0-0.6 c0-0.2,0.1-0.3,0.2-0.4c0.5-0.4,0.9-0.8,1.3-1.2c-0.4,0.1-0.9,0.2-1.4,0.3c-0.2,0-0.5-0.1-0.5-0.3c-0.1-0.2,0-0.5,0.2-0.6 c0.5-0.3,1-0.8,1.4-1.3c-0.6,0.3-1.3,0.5-2,0.6c-0.2,0-0.3,0-0.5-0.2c-0.8-0.9-2-1.5-3.3-1.5c-2.5,0-4.5,2.1-4.5,4.6 c0,0.4,0,0.7,0.1,1.1c0,0.2,0,0.3-0.1,0.4c-0.1,0.1-0.3,0.2-0.4,0.2c-3.9-0.2-7.6-2-10.2-4.9c-0.2,0.5-0.3,1.1-0.3,1.7 c0,1.5,0.8,3,2,3.8c0.2,0.1,0.3,0.4,0.2,0.6c-0.1,0.2-0.3,0.4-0.5,0.3c-0.6,0-1.1-0.1-1.7-0.3c0.3,1.9,1.7,3.4,3.5,3.8 c0.2,0,0.4,0.2,0.4,0.5c0,0.2-0.1,0.4-0.4,0.5c-0.5,0.1-1.1,0.2-1.6,0.2c0.8,1.5,2.2,2.4,3.9,2.5c0.2,0,0.4,0.1,0.5,0.3 s0,0.4-0.2,0.6C43.6,57.9,41.6,58.7,39.6,58.9z"/></g></svg>